HIERARCHY
ROOT Hips
{
	OFFSET 0.000000 100.481300 0.000000
	CHANNELS 6 Xposition Yposition Zposition Xrotation Yrotation Zrotation
	JOINT Spine
	{
		OFFSET -0.279200 12.230698 -2.892100
		CHANNELS 3 Xrotation Yrotation Zrotation
		JOINT Spine1
		{
			OFFSET -0.325700 14.269203 -3.374200
			CHANNELS 3 Xrotation Yrotation Zrotation
			JOINT Spine2
			{
				OFFSET -0.372300 16.307602 -0.352600
				CHANNELS 3 Xrotation Yrotation Zrotation
				JOINT Neck
				{
					OFFSET -0.418800 17.814194 8.416900
					CHANNELS 3 Xrotation Yrotation Zrotation
					JOINT Head
					{
						OFFSET 0.000000 7.031097 3.806800
						CHANNELS 3 Xrotation Yrotation Zrotation
						JOINT HeadTop_End
						{
							OFFSET 0.000000 24.646606 12.978600
							CHANNELS 3 Xrotation Yrotation Zrotation
							End Site
							{
								OFFSET 0.000000 27.854965 0.000000
							}
						}
					}
				}
				JOINT LeftShoulder
				{
					OFFSET 16.952999 14.495407 -7.737500
					CHANNELS 3 Xrotation Yrotation Zrotation
					JOINT LeftArm
					{
						OFFSET 9.308998 -2.777710 0.208600
						CHANNELS 3 Xrotation Yrotation Zrotation
						JOINT LeftForeArm
						{
							OFFSET 29.972298 0.000000 0.000000
							CHANNELS 3 Xrotation Yrotation Zrotation
							JOINT LeftHand
							{
								OFFSET 26.026505 0.000000 0.000000
								CHANNELS 3 Xrotation Yrotation Zrotation
								JOINT LeftHandThumb1
								{
									OFFSET 12.240501 -7.147949 9.207150
									CHANNELS 3 Xrotation Yrotation Zrotation
									JOINT LeftHandThumb2
									{
										OFFSET 4.138618 -2.389435 2.389433
										CHANNELS 3 Xrotation Yrotation Zrotation
										JOINT LeftHandThumb3
										{
											OFFSET 2.726913 -1.574387 1.574386
											CHANNELS 3 Xrotation Yrotation Zrotation
											JOINT LeftHandThumb4
											{
												OFFSET 3.941010 -2.275345 2.275342
												CHANNELS 3 Xrotation Yrotation Zrotation
												End Site
												{
													OFFSET -0.005798 5.087799 0.009903
												}
											}
										}
									}
								}
								JOINT LeftHandIndex1
								{
									OFFSET 24.424698 -1.985611 5.953459
									CHANNELS 3 Xrotation Yrotation Zrotation
									JOINT LeftHandIndex2
									{
										OFFSET 6.426697 0.000000 0.000000
										CHANNELS 3 Xrotation Yrotation Zrotation
										JOINT LeftHandIndex3
										{
											OFFSET 5.337898 0.000000 0.000000
											CHANNELS 3 Xrotation Yrotation Zrotation
											JOINT LeftHandIndex4
											{
												OFFSET 4.409401 0.000000 0.000000
												CHANNELS 3 Xrotation Yrotation Zrotation
												End Site
												{
													OFFSET 0.000000 4.409363 0.014373
												}
											}
										}
									}
								}
								JOINT LeftHandMiddle1
								{
									OFFSET 23.810104 0.000000 0.000000
									CHANNELS 3 Xrotation Yrotation Zrotation
									JOINT LeftHandMiddle2
									{
										OFFSET 7.176498 0.000000 0.000000
										CHANNELS 3 Xrotation Yrotation Zrotation
										JOINT LeftHandMiddle3
										{
											OFFSET 6.774902 0.000000 0.000000
											CHANNELS 3 Xrotation Yrotation Zrotation
											JOINT LeftHandMiddle4
											{
												OFFSET 5.403328 0.000000 0.000000
												CHANNELS 3 Xrotation Yrotation Zrotation
												End Site
												{
													OFFSET -0.027702 5.403244 0.017414
												}
											}
										}
									}
								}
								JOINT LeftHandRing1
								{
									OFFSET 22.908401 -0.839279 -6.020567
									CHANNELS 3 Xrotation Yrotation Zrotation
									JOINT LeftHandRing2
									{
										OFFSET 6.337502 0.000000 0.000000
										CHANNELS 3 Xrotation Yrotation Zrotation
										JOINT LeftHandRing3
										{
											OFFSET 5.779297 0.000000 0.000000
											CHANNELS 3 Xrotation Yrotation Zrotation
											JOINT LeftHandRing4
											{
												OFFSET 4.965698 0.000000 0.000000
												CHANNELS 3 Xrotation Yrotation Zrotation
												End Site
												{
													OFFSET 0.000000 4.965668 0.016186
												}
											}
										}
									}
								}
								JOINT LeftHandPinky1
								{
									OFFSET 20.037003 -1.530319 -10.950146
									CHANNELS 3 Xrotation Yrotation Zrotation
									JOINT LeftHandPinky2
									{
										OFFSET 5.254700 0.000000 0.000000
										CHANNELS 3 Xrotation Yrotation Zrotation
										JOINT LeftHandPinky3
										{
											OFFSET 4.810204 0.000000 0.000000
											CHANNELS 3 Xrotation Yrotation Zrotation
											JOINT LeftHandPinky4
											{
												OFFSET 3.647202 0.000000 0.000000
												CHANNELS 3 Xrotation Yrotation Zrotation
												End Site
												{
													OFFSET 0.000000 3.647186 0.011889
												}
											}
										}
									}
								}
							}
						}
					}
				}
				JOINT RightShoulder
				{
					OFFSET -15.141001 14.495407 -7.737500
					CHANNELS 3 Xrotation Yrotation Zrotation
					JOINT RightArm
					{
						OFFSET -9.308998 -2.777710 0.208500
						CHANNELS 3 Xrotation Yrotation Zrotation
						JOINT RightForeArm
						{
							OFFSET -29.972300 0.000000 0.000000
							CHANNELS 3 Xrotation Yrotation Zrotation
							JOINT RightHand
							{
								OFFSET -26.026505 0.000000 0.000000
								CHANNELS 3 Xrotation Yrotation Zrotation
								JOINT RightHandThumb1
								{
									OFFSET -12.240601 -7.148026 9.207092
									CHANNELS 3 Xrotation Yrotation Zrotation
									JOINT RightHandThumb2
									{
										OFFSET -4.138618 -2.389435 2.389433
										CHANNELS 3 Xrotation Yrotation Zrotation
										JOINT RightHandThumb3
										{
											OFFSET -2.726974 -1.574417 1.574421
											CHANNELS 3 Xrotation Yrotation Zrotation
											JOINT RightHandThumb4
											{
												OFFSET -3.941010 -2.275345 2.275343
												CHANNELS 3 Xrotation Yrotation Zrotation
												End Site
												{
													OFFSET 0.005814 5.087799 0.009927
												}
											}
										}
									}
								}
								JOINT RightHandIndex1
								{
									OFFSET -24.424698 -1.985657 5.953444
									CHANNELS 3 Xrotation Yrotation Zrotation
									JOINT RightHandIndex2
									{
										OFFSET -6.426697 0.000000 0.000000
										CHANNELS 3 Xrotation Yrotation Zrotation
										JOINT RightHandIndex3
										{
											OFFSET -5.337898 0.000000 0.000000
											CHANNELS 3 Xrotation Yrotation Zrotation
											JOINT RightHandIndex4
											{
												OFFSET -4.409401 0.000000 0.000000
												CHANNELS 3 Xrotation Yrotation Zrotation
												End Site
												{
													OFFSET 0.000000 4.409363 0.014408
												}
											}
										}
									}
								}
								JOINT RightHandMiddle1
								{
									OFFSET -23.810097 0.000000 0.000000
									CHANNELS 3 Xrotation Yrotation Zrotation
									JOINT RightHandMiddle2
									{
										OFFSET -7.176498 0.000000 0.000000
										CHANNELS 3 Xrotation Yrotation Zrotation
										JOINT RightHandMiddle3
										{
											OFFSET -6.774902 0.000000 0.000000
											CHANNELS 3 Xrotation Yrotation Zrotation
											JOINT RightHandMiddle4
											{
												OFFSET -5.403328 0.000000 0.000000
												CHANNELS 3 Xrotation Yrotation Zrotation
												End Site
												{
													OFFSET 0.027702 5.403244 0.017457
												}
											}
										}
									}
								}
								JOINT RightHandRing1
								{
									OFFSET -22.908302 -0.839325 -6.020576
									CHANNELS 3 Xrotation Yrotation Zrotation
									JOINT RightHandRing2
									{
										OFFSET -6.337502 0.000000 0.000000
										CHANNELS 3 Xrotation Yrotation Zrotation
										JOINT RightHandRing3
										{
											OFFSET -5.779297 0.000000 0.000000
											CHANNELS 3 Xrotation Yrotation Zrotation
											JOINT RightHandRing4
											{
												OFFSET -4.965698 0.000000 0.000000
												CHANNELS 3 Xrotation Yrotation Zrotation
												End Site
												{
													OFFSET 0.000000 4.965668 0.016226
												}
											}
										}
									}
								}
								JOINT RightHandPinky1
								{
									OFFSET -20.037003 -1.530334 -10.950259
									CHANNELS 3 Xrotation Yrotation Zrotation
									JOINT RightHandPinky2
									{
										OFFSET -5.254700 0.000000 0.000000
										CHANNELS 3 Xrotation Yrotation Zrotation
										JOINT RightHandPinky3
										{
											OFFSET -4.810204 0.000000 0.000000
											CHANNELS 3 Xrotation Yrotation Zrotation
											JOINT RightHandPinky4
											{
												OFFSET -3.647202 0.000000 0.000000
												CHANNELS 3 Xrotation Yrotation Zrotation
												End Site
												{
													OFFSET 0.000000 3.647186 0.011917
												}
											}
										}
									}
								}
							}
						}
					}
				}
			}
		}
	}
	JOINT LeftUpLeg
	{
		OFFSET 15.427100 -6.655098 0.678600
		CHANNELS 3 Xrotation Yrotation Zrotation
		JOINT LeftLeg
		{
			OFFSET 4.081073 -39.591068 13.024000
			CHANNELS 3 Xrotation Yrotation Zrotation
			JOINT LeftFoot
			{
				OFFSET -4.081074 -37.707932 -15.979700
				CHANNELS 3 Xrotation Yrotation Zrotation
				JOINT LeftToeBase
				{
					OFFSET 5.346399 -15.068900 20.645000
					CHANNELS 3 Xrotation Yrotation Zrotation
					JOINT LeftToe_End
					{
						OFFSET 2.754700 0.931300 11.300900
						CHANNELS 3 Xrotation Yrotation Zrotation
						End Site
						{
							OFFSET 0.000000 11.669021 0.000000
						}
					}
				}
			}
		}
	}
	JOINT RightUpLeg
	{
		OFFSET -15.569500 -6.655098 0.678600
		CHANNELS 3 Xrotation Yrotation Zrotation
		JOINT RightLeg
		{
			OFFSET -4.081825 -39.591045 13.023800
			CHANNELS 3 Xrotation Yrotation Zrotation
			JOINT RightFoot
			{
				OFFSET 4.081824 -37.707954 -15.979600
				CHANNELS 3 Xrotation Yrotation Zrotation
				JOINT RightToeBase
				{
					OFFSET -5.346400 -15.068900 20.645000
					CHANNELS 3 Xrotation Yrotation Zrotation
					JOINT RightToe_End
					{
						OFFSET -2.754700 0.931300 11.300900
						CHANNELS 3 Xrotation Yrotation Zrotation
						End Site
						{
							OFFSET 0.000000 11.669021 0.000000
						}
					}
				}
			}
		}
	}
}
MOTION
Frames: 4
Frame Time: 0.033333
-0.843935 45.097710 17.308634 -9.537460 -8.331209 0.275220 20.183175 -0.466633 -3.240968 2.255246 -0.114050 -0.375872 2.246707 -0.109376 -0.398141 1.427922 0.481616 0.070397 -17.108748 3.022459 3.695905 -0.000000 0.000000 0.000000 1.996094 -14.605354 -7.221737 -17.841465 -15.834802 -54.595959 0.000001 -57.083408 0.000008 25.268184 -2.206045 15.380727 6.684561 -2.649201 1.583476 18.711426 22.575577 -9.748972 3.271818 -1.060125 3.919544 -0.000000 0.000000 0.000001 1.293665 6.245713 -55.157975 0.946744 3.194922 -33.004553 0.152035 1.327361 -13.068113 -0.000000 0.000000 0.000001 -0.585980 4.091749 -44.482929 0.868269 3.070929 -31.569001 0.386617 2.094737 -20.911242 -0.000001 -0.000002 0.000001 2.326702 7.240694 -38.409787 0.415353 2.168473 -21.684840 0.314775 1.896208 -18.848744 0.000000 0.000002 0.000000 1.907046 7.296345 -27.950529 0.217939 1.584575 -15.660999 0.537609 2.453447 -24.715647 0.000001 0.000001 0.000001 1.408769 17.426323 11.967082 -24.972982 29.617575 52.654335 -0.000001 37.698259 0.000002 23.528909 7.541417 -0.746498 4.377367 3.409934 -16.844315 21.104335 -18.687102 17.764567 7.439291 -8.426129 15.031180 -0.000000 0.000000 -0.000002 1.185136 -5.388615 49.570795 0.883503 -2.731173 35.845004 0.232740 -1.455300 18.171766 0.000000 -0.000002 -0.000002 -0.572147 -3.678032 46.251002 0.499161 -2.099502 26.744845 0.021122 -0.443480 5.452340 0.000000 -0.000000 0.000001 -0.191722 -3.454085 35.796140 0.302650 -1.653081 20.748684 0.012786 -0.345399 4.243938 0.000000 -0.000001 -0.000000 2.035758 -7.472348 25.921714 0.378770 -1.841396 23.244662 0.112357 -1.017846 12.597246 -0.000002 -0.000000 0.000000 -85.926990 -1.648306 14.577978 85.193633 -8.585368 -5.781054 10.436859 0.002258 2.245642 -0.001470 -0.000003 -0.000000 -0.000000 -0.000000 0.000000 -85.466710 5.053398 -12.810081 91.275212 -3.102012 4.566279 4.261394 -2.457609 -2.568931 -0.107101 0.000006 -0.000002 0.000000 0.000001 0.000000 
-0.849376 45.088989 17.313465 -9.537543 -8.344167 0.297015 20.212340 -0.466130 -3.240642 2.281439 -0.114053 -0.375871 2.273152 -0.111115 -0.398141 1.427923 0.486720 0.070397 -17.057641 3.036273 3.680117 -0.000000 -0.000000 -0.000000 1.992675 -14.631563 -7.222604 -17.858851 -15.765216 -54.571671 -0.000014 -57.184895 -0.000013 25.307268 -2.158180 15.322846 6.684563 -2.649190 1.583474 18.711428 22.575597 -9.748966 3.271821 -1.060126 3.919551 0.000001 -0.000000 0.000001 1.293678 6.245726 -55.157982 0.946750 3.194914 -33.004557 0.152034 1.327348 -13.068122 -0.000001 0.000000 0.000002 -0.585974 4.091743 -44.482918 0.868271 3.070931 -31.569001 0.386602 2.094736 -20.911249 0.000000 0.000002 0.000001 2.326714 7.240684 -38.409781 0.415376 2.168470 -21.684835 0.314779 1.896205 -18.848740 -0.000000 0.000002 -0.000000 1.907059 7.296344 -27.950526 0.217932 1.584586 -15.661001 0.537606 2.453451 -24.715670 -0.000000 -0.000000 0.000000 1.425203 17.425027 11.912216 -25.022625 29.629446 52.700538 -0.000024 37.731543 0.000034 23.484415 7.531784 -0.788199 4.377369 3.409922 -16.844329 21.104323 -18.687104 17.764559 7.439297 -8.426151 15.031175 0.000000 -0.000001 0.000003 1.185143 -5.388615 49.570781 0.883492 -2.731169 35.845007 0.232750 -1.455313 18.171776 -0.000000 -0.000002 -0.000002 -0.572136 -3.678024 46.250988 0.499143 -2.099481 26.744842 0.021137 -0.443503 5.452339 0.000000 -0.000005 -0.000000 -0.191730 -3.454095 35.796134 0.302657 -1.653086 20.748675 0.012796 -0.345381 4.243933 0.000000 0.000000 -0.000000 2.035754 -7.472355 25.921703 0.378780 -1.841422 23.244652 0.112367 -1.017849 12.597233 -0.000000 -0.000000 -0.000000 -85.911663 -1.648132 14.577973 85.194288 -8.597539 -5.781899 10.418775 0.005006 2.239087 0.000016 -0.000001 -0.000036 -0.000000 -0.000000 -0.000000 -85.472058 5.088006 -12.819933 91.290341 -3.079781 4.592596 4.260047 -2.486918 -2.590570 -0.238323 -0.000006 0.000003 0.000000 -0.000001 -0.000000 
-0.856574 45.085129 17.319147 -9.533802 -8.356518 0.313228 20.217191 -0.465492 -3.240296 2.285795 -0.118451 -0.375871 2.277579 -0.116095 -0.398610 1.427929 0.514771 0.070397 -16.979382 3.295191 3.690623 -0.000000 0.000000 -0.000000 1.991908 -14.627069 -7.227882 -17.851570 -15.771130 -54.548384 0.000009 -57.185383 0.000023 25.316767 -2.163044 15.313064 6.684561 -2.649209 1.583459 18.711430 22.575575 -9.748955 3.271819 -1.060123 3.919554 0.000000 0.000000 0.000002 1.293680 6.245721 -55.157988 0.946727 3.194901 -33.004550 0.152041 1.327354 -13.068118 -0.000000 -0.000002 -0.000001 -0.586003 4.091729 -44.482946 0.868290 3.070938 -31.569001 0.386608 2.094734 -20.911249 0.000001 -0.000003 -0.000000 2.326702 7.240662 -38.409794 0.415371 2.168486 -21.684830 0.314773 1.896205 -18.848739 0.000000 0.000000 0.000001 1.907050 7.296309 -27.950543 0.217921 1.584575 -15.661001 0.537619 2.453448 -24.715647 0.000001 -0.000002 0.000000 1.425637 17.424989 11.910758 -25.009877 29.640303 52.693103 0.000022 37.748936 -0.000018 23.468074 7.517128 -0.824938 4.377367 3.409943 -16.844321 21.104323 -18.687114 17.764579 7.439299 -8.426137 15.031168 -0.000000 -0.000001 -0.000002 1.185159 -5.388623 49.570771 0.883470 -2.731151 35.845017 0.232759 -1.455319 18.171754 -0.000001 0.000001 0.000000 -0.572151 -3.678022 46.251012 0.499162 -2.099505 26.744828 0.021125 -0.443490 5.452346 0.000002 -0.000003 -0.000000 -0.191728 -3.454083 35.796137 0.302654 -1.653086 20.748680 0.012800 -0.345392 4.243932 -0.000000 0.000001 0.000000 2.035750 -7.472349 25.921702 0.378773 -1.841419 23.244669 0.112346 -1.017838 12.597247 -0.000000 -0.000000 -0.000000 -85.912059 -1.650280 14.579797 85.192239 -8.609177 -5.783035 10.418412 0.006197 2.224306 -0.005028 0.000001 0.000001 0.000000 0.000000 -0.000000 -85.474784 5.128133 -12.856111 91.303332 -3.045548 4.633573 4.249398 -2.529787 -2.608416 -0.451236 0.000002 -0.000000 0.000000 -0.000000 -0.000000 
-0.862550 45.083580 17.324188 -9.519193 -8.368035 0.324433 20.218589 -0.463084 -3.239123 2.285387 -0.128135 -0.375871 2.277134 -0.122278 -0.399082 1.422003 0.557173 0.053884 -16.911291 3.728543 3.732262 0.000000 -0.000000 0.000000 1.987606 -14.615951 -7.250725 -17.832080 -15.766401 -54.526633 -0.000026 -57.183238 -0.000022 25.302765 -2.164060 15.316236 6.683312 -2.658406 1.581555 18.707915 22.566112 -9.748907 3.268666 -1.069469 3.916950 0.000001 -0.000000 0.000000 1.292970 6.244906 -55.147791 0.946189 3.194061 -32.994404 0.151808 1.326326 -13.057986 -0.000000 -0.000000 -0.000000 -0.586292 4.090586 -44.472830 0.867739 3.070045 -31.558817 0.386228 2.093753 -20.901101 -0.000001 0.000001 -0.000002 2.325829 7.240051 -38.399556 0.414983 2.167507 -21.674675 0.314435 1.895232 -18.838604 -0.000000 0.000001 0.000001 1.906169 7.295623 -27.940325 0.217658 1.583580 -15.650839 0.537185 2.452521 -24.705499 0.000000 -0.000001 0.000000 1.422235 17.425259 11.922115 -24.992284 29.637608 52.682916 -0.000002 37.785337 0.000012 23.473559 7.490458 -0.840962 4.378045 3.414429 -16.843479 21.099580 -18.678120 17.764187 7.433376 -8.418527 15.032502 0.000001 0.000002 -0.000001 1.184608 -5.387982 49.560590 0.882989 -2.730487 35.834840 0.232481 -1.454512 18.161613 0.000002 -0.000001 -0.000005 -0.572388 -3.677093 46.240859 0.498793 -2.098763 26.734651 0.021043 -0.442645 5.442188 0.000000 0.000000 0.000001 -0.191931 -3.453227 35.785984 0.302369 -1.652320 20.738526 0.012739 -0.344562 4.233783 0.000000 -0.000000 -0.000000 2.034836 -7.471870 25.911480 0.378431 -1.840660 23.234459 0.112171 -1.017060 12.587088 -0.000000 0.000002 -0.000000 -85.926662 -1.648974 14.576892 85.201945 -8.623440 -5.779587 10.420032 0.003837 2.205018 -0.075017 0.000002 0.000000 0.000000 -0.000000 -0.000000 -85.482235 5.172637 -12.890788 91.311904 -3.020770 4.671247 4.241045 -2.577472 -2.613005 -0.692043 -0.000009 0.000001 -0.000000 -0.000002 -0.000000 
